# xmcd CD database file
#
# Track frame offsets:
#	150
#	16116
#	28613
#	41698
#	59327
#	77913
#	92731
#	105489
#	119101
#	133393
#	147686
#	163612
#	179050
#	194100
#	208683
#	221823
#	236457
#	250868
#	265646
#	280736
#
# Disc length: 3965 seconds
#
# Revision: 0
# Processed by: cddbd v1.5.1PL2 Copyright (c) Steve Scherf et al.
# Submitted via: CDex 1.51
#
DISCID=370f7b14
DTITLE=Truck Stop - Der wilde, wilde Westen  CD 2
DYEAR=2005
DGENRE=Country
TTITLE0=Ich möcht so gern Dave Dudley hör`n
TTITLE1=Der wilde, wilde Westen
TTITLE2=Die Frau mit dem Gurt
TTITLE3=Eddies Big Truck
TTITLE4=Route 66
TTITLE5=On The Road
TTITLE6=Cops and Trucker
TTITLE7=Tausend Meilen
TTITLE8=Du bist immer auf Achse
TTITLE9=Big White Diesel
TTITLE10=Trucker lieben die Freiheit
TTITLE11=Lady Harley
TTITLE12=Easy Rider
TTITLE13=Pack dein Herz in einen Koffer
TTITLE14=Bock auf`n Pickup Truck
TTITLE15=Der Tramp
TTITLE16=Wir sind noch lange keine Opas
TTITLE17=Ein Tag wie ein Freund
TTITLE18=Ich will nach Hause
TTITLE19=Alabama Moon
EXTD=YEAR: 2005
EXTT0=
EXTT1=
EXTT2=
EXTT3=
EXTT4=
EXTT5=
EXTT6=
EXTT7=
EXTT8=
EXTT9=
EXTT10=
EXTT11=
EXTT12=
EXTT13=
EXTT14=
EXTT15=
EXTT16=
EXTT17=
EXTT18=
EXTT19=
PLAYORDER=
